<svg width="29" height="29" viewBox="0 0 29 29" fill="none" xmlns="http://www.w3.org/2000/svg">
<path d="M19.3334 9.6665C21.2562 9.6665 23.1002 10.4303 24.4599 11.79C25.8195 13.1496 26.5834 14.9937 26.5834 16.9165V25.3748H21.75V16.9165C21.75 16.2756 21.4954 15.6609 21.0422 15.2077C20.589 14.7545 19.9743 14.4998 19.3334 14.4998C18.6924 14.4998 18.0777 14.7545 17.6245 15.2077C17.1713 15.6609 16.9167 16.2756 16.9167 16.9165V25.3748H12.0834V16.9165C12.0834 14.9937 12.8472 13.1496 14.2068 11.79C15.5665 10.4303 17.4105 9.6665 19.3334 9.6665Z" stroke="white" stroke-width="2" stroke-linecap="round" stroke-linejoin="round"/>
<path d="M7.25002 10.8748H2.41669V25.3748H7.25002V10.8748Z" stroke="white" stroke-width="2" stroke-linecap="round" stroke-linejoin="round"/>
<path d="M4.83335 7.24984C6.16804 7.24984 7.25002 6.16786 7.25002 4.83317C7.25002 3.49848 6.16804 2.4165 4.83335 2.4165C3.49867 2.4165 2.41669 3.49848 2.41669 4.83317C2.41669 6.16786 3.49867 7.24984 4.83335 7.24984Z" stroke="white" stroke-width="2" stroke-linecap="round" stroke-linejoin="round"/>
</svg>
