<svg width="68" height="68" viewBox="0 0 68 68" fill="none" xmlns="http://www.w3.org/2000/svg">
<path d="M34 1C52.2254 1 67 15.7746 67 34C67 52.2254 52.2254 67 34 67C15.7746 67 1 52.2254 1 34C1 15.7746 15.7746 1 34 1Z" fill="white" stroke="#EF4444" stroke-width="2"/>
<path d="M25.0773 46.964V43.184L36.1653 33.302C37.0293 32.534 37.6293 31.808 37.9653 31.124C38.3013 30.44 38.4693 29.78 38.4693 29.144C38.4693 28.28 38.2833 27.512 37.9113 26.84C37.5393 26.156 37.0233 25.616 36.3633 25.22C35.7153 24.824 34.9653 24.626 34.1133 24.626C33.2133 24.626 32.4153 24.836 31.7193 25.256C31.0353 25.664 30.5013 26.21 30.1173 26.894C29.7333 27.578 29.5533 28.316 29.5773 29.108H25.1133C25.1133 27.38 25.4973 25.874 26.2653 24.59C27.0453 23.306 28.1133 22.31 29.4693 21.602C30.8373 20.894 32.4153 20.54 34.2033 20.54C35.8593 20.54 37.3473 20.912 38.6673 21.656C39.9873 22.388 41.0253 23.408 41.7813 24.716C42.5373 26.012 42.9153 27.506 42.9153 29.198C42.9153 30.434 42.7473 31.472 42.4113 32.312C42.0753 33.152 41.5713 33.926 40.8993 34.634C40.2393 35.342 39.4173 36.128 38.4333 36.992L30.5673 43.958L30.1713 42.878H42.9153V46.964H25.0773Z" fill="#EF4444"/>
</svg>
