<svg width="68" height="68" viewBox="0 0 68 68" fill="none" xmlns="http://www.w3.org/2000/svg">
<path d="M34 1C52.2254 1 67 15.7746 67 34C67 52.2254 52.2254 67 34 67C15.7746 67 1 52.2254 1 34C1 15.7746 15.7746 1 34 1Z" fill="white" stroke="#EF4444" stroke-width="2"/>
<path d="M33.977 47.486C32.681 47.486 31.457 47.234 30.305 46.73C29.153 46.226 28.151 45.512 27.299 44.588C26.459 43.664 25.853 42.572 25.481 41.312L29.675 40.178C29.975 41.21 30.521 42.008 31.313 42.572C32.117 43.124 32.999 43.394 33.959 43.382C34.811 43.382 35.573 43.184 36.245 42.788C36.917 42.392 37.445 41.858 37.829 41.186C38.213 40.502 38.405 39.74 38.405 38.9C38.405 37.616 37.991 36.542 37.163 35.678C36.335 34.814 35.267 34.382 33.959 34.382C33.563 34.382 33.173 34.436 32.789 34.544C32.417 34.652 32.057 34.802 31.709 34.994L29.729 31.574L38.441 24.122L38.819 25.166H26.489V21.08H42.383V25.184L35.381 31.916L35.345 30.638C36.917 30.746 38.255 31.184 39.359 31.952C40.475 32.72 41.327 33.71 41.915 34.922C42.515 36.134 42.815 37.46 42.815 38.9C42.815 40.532 42.413 41.996 41.609 43.292C40.817 44.588 39.749 45.614 38.405 46.37C37.073 47.114 35.597 47.486 33.977 47.486Z" fill="#EF4444"/>
</svg>
